<svg width="19" height="20" viewBox="0 0 19 20" fill="none" xmlns="http://www.w3.org/2000/svg">
<path d="M3.60615 9.99994L10.4596 9.99994M16.0563 11.4141L3.76311 17.9222C2.66107 18.5057 2.11014 18.7974 1.74681 18.7135C1.43172 18.6408 1.17146 18.4203 1.04789 18.1215C0.905405 17.7769 1.1023 17.1851 1.49662 16.0022L3.3287 10.506C3.39127 10.3182 3.42253 10.2243 3.43496 10.1283C3.44598 10.0431 3.44619 9.95698 3.43516 9.87177C3.42274 9.77574 3.39128 9.68173 3.32871 9.494L1.49663 3.99776C1.10231 2.8148 0.905035 2.22336 1.04752 1.87877C1.17109 1.57992 1.4317 1.35929 1.7468 1.28653C2.11012 1.20263 2.66113 1.49443 3.76317 2.07786L16.0564 8.58603C16.9228 9.04471 17.3559 9.27392 17.4975 9.57987C17.6209 9.84635 17.621 10.1537 17.4977 10.4202C17.356 10.7262 16.9227 10.9554 16.0563 11.4141Z" stroke="#FF6700" stroke-width="2" stroke-linecap="round" stroke-linejoin="round"/>
</svg>
